<?xml version="1.0" encoding="UTF-8" standalone="no"?>
<svg
  id="tt-logo"
  version="1.1"
  viewBox="0 0 122 120"
  height="120mm"
  width="122mm"
  xmlns="http://www.w3.org/2000/svg"
  xmlns:svg="http://www.w3.org/2000/svg">
  <g
    id="tt-logo-wrapper">
    <g
      class="lg-coeur lg-coeur-0"
      transform="matrix(0.04049201,0,0,0.04433018,81.914761,60.318318)"
      id="g2">
      <path
        d="m -37.919791,-126.63428 c 58.743,0.286 106.294,47.835995 106.58,106.579995 0,107.624 -195.917999,214.204005 -195.917999,214.204005 0,0 -195.919,-108.147005 -195.919,-214.204005 0,-58.862 47.717,-106.579995 106.58,-106.579995 v 0 c 36.032,-0.281 69.718,17.842 89.339,48.064995 19.755,-30.075995 53.353999,-48.151995 89.337999,-48.064995 z"
        fill="#ea8787"
        id="path1" />
    </g>
    <g
      class="lg-coeur lg-coeur-1"
      transform="matrix(0.02514766,0,0,0.02611499,50.121169,50.964355)"
      id="g4">
      <path
        fill="#ea8787"
        d="m -37.919791,-126.63428 c 58.743,0.286 106.294,47.835995 106.58,106.579995 0,107.624 -195.917999,214.204005 -195.917999,214.204005 0,0 -195.919,-108.147005 -195.919,-214.204005 0,-58.862 47.717,-106.579995 106.58,-106.579995 v 0 c 36.032,-0.281 69.718,17.842 89.339,48.064995 19.755,-30.075995 53.353999,-48.151995 89.337999,-48.064995 z"
        id="path2" />
    </g>
    <g
      class="lg-coeur lg-coeur-2"
      transform="matrix(0.04049201,0,0,0.04433018,35.779666,53.545582)"
      id="g6">
      <path
        fill="#ea8787"
        d="m -37.919791,-126.63428 c 58.743,0.286 106.294,47.835995 106.58,106.579995 0,107.624 -195.917999,214.204005 -195.917999,214.204005 0,0 -195.919,-108.147005 -195.919,-214.204005 0,-58.862 47.717,-106.579995 106.58,-106.579995 v 0 c 36.032,-0.281 69.718,17.842 89.339,48.064995 19.755,-30.075995 53.353999,-48.151995 89.337999,-48.064995 z"
        id="path4" />
    </g>
    <g
      class="lg-coeur lg-coeur-3"
      transform="matrix(0.03353022,0,0,0.03656099,50.450212,38.432358)"
      id="g8">

      <path
        d="m -37.919791,-126.63428 c 58.743,0.286 106.294,47.835995 106.58,106.579995 0,107.624 -195.917999,214.204005 -195.917999,214.204005 0,0 -195.919,-108.147005 -195.919,-214.204005 0,-58.862 47.717,-106.579995 106.58,-106.579995 v 0 c 36.032,-0.281 69.718,17.842 89.339,48.064995 19.755,-30.075995 53.353999,-48.151995 89.337999,-48.064995 z"
        fill="#ea8787"
        id="path6" />

    </g>
    <g
      class="lg-coeur lg-coeur-4"
      transform="matrix(0.04049201,0,0,0.04433018,31.941906,36.37474)"
      id="g10">

      <path
        fill="#ea8787"
        d="m -37.919791,-126.63428 c 58.743,0.286 106.294,47.835995 106.58,106.579995 0,107.624 -195.917999,214.204005 -195.917999,214.204005 0,0 -195.919,-108.147005 -195.919,-214.204005 0,-58.862 47.717,-106.579995 106.58,-106.579995 v 0 c 36.032,-0.281 69.718,17.842 89.339,48.064995 19.755,-30.075995 53.353999,-48.151995 89.337999,-48.064995 z"
        id="path8" />

    </g>
    <g
      class="lg-coeur lg-coeur-5"
      transform="matrix(0.05761855,0,0,0.06353834,49.872156,20.494557)"
      id="g12">

      <path
        d="m -37.919791,-126.63428 c 58.743,0.286 106.294,47.835995 106.58,106.579995 0,107.624 -195.917999,214.204005 -195.917999,214.204005 0,0 -195.919,-108.147005 -195.919,-214.204005 0,-58.862 47.717,-106.579995 106.58,-106.579995 v 0 c 36.032,-0.281 69.718,17.842 89.339,48.064995 19.755,-30.075995 53.353999,-48.151995 89.337999,-48.064995 z"
        fill="#ea8787"
        id="path10" />

    </g>
    <g
      class="lg-coeur lg-coeur-6"
      transform="matrix(0.04819969,0,0,0.05222999,67.577501,8.1394863)"
      id="g14">

      <path
        fill="#ea8787"
        d="m -37.919791,-126.63428 c 58.743,0.286 106.294,47.835995 106.58,106.579995 0,107.624 -195.917999,214.204005 -195.917999,214.204005 0,0 -195.919,-108.147005 -195.919,-214.204005 0,-58.862 47.717,-106.579995 106.58,-106.579995 v 0 c 36.032,-0.281 69.718,17.842 89.339,48.064995 19.755,-30.075995 53.353999,-48.151995 89.337999,-48.064995 z"
        id="path12" />

    </g>
    <g
      class="lg-coeur lg-coeur-7"
      transform="matrix(0.04049201,0,0,0.04433018,65.760191,28.813073)"
      id="g16">

      <path
        fill="#ea8787"
        d="m -37.919791,-126.63428 c 58.743,0.286 106.294,47.835995 106.58,106.579995 0,107.624 -195.917999,214.204005 -195.917999,214.204005 0,0 -195.919,-108.147005 -195.919,-214.204005 0,-58.862 47.717,-106.579995 106.58,-106.579995 v 0 c 36.032,-0.281 69.718,17.842 89.339,48.064995 19.755,-30.075995 53.353999,-48.151995 89.337999,-48.064995 z"
        id="path14" />

    </g>
    <g
      class="lg-coeur lg-coeur-8"
      transform="matrix(0.02514766,0,0,0.02611499,82.228686,5.1679218)"
      id="g18">

      <path
        d="m -37.919791,-126.63428 c 58.743,0.286 106.294,47.835995 106.58,106.579995 0,107.624 -195.917999,214.204005 -195.917999,214.204005 0,0 -195.919,-108.147005 -195.919,-214.204005 0,-58.862 47.717,-106.579995 106.58,-106.579995 v 0 c 36.032,-0.281 69.718,17.842 89.339,48.064995 19.755,-30.075995 53.353999,-48.151995 89.337999,-48.064995 z"
        fill="#ea8787"
        id="path16" />

    </g>
    <g
      class="lg-coeur lg-coeur-9"
      transform="matrix(0.04049201,0,0,0.04433018,90.578439,37.757842)"
      id="g20">

      <path
        d="m -37.919791,-126.63428 c 58.743,0.286 106.294,47.835995 106.58,106.579995 0,107.624 -195.917999,214.204005 -195.917999,214.204005 0,0 -195.919,-108.147005 -195.919,-214.204005 0,-58.862 47.717,-106.579995 106.58,-106.579995 v 0 c 36.032,-0.281 69.718,17.842 89.339,48.064995 19.755,-30.075995 53.353999,-48.151995 89.337999,-48.064995 z"
        fill="#ea8787"
        id="path18" />

    </g>
    <g
      class="lg-coeur lg-coeur-10"
      transform="matrix(0.02514766,0,0,0.02611499,94.752688,52.145901)"
      id="g22">

      <path
        d="m -37.919791,-126.63428 c 58.743,0.286 106.294,47.835995 106.58,106.579995 0,107.624 -195.917999,214.204005 -195.917999,214.204005 0,0 -195.919,-108.147005 -195.919,-214.204005 0,-58.862 47.717,-106.579995 106.58,-106.579995 v 0 c 36.032,-0.281 69.718,17.842 89.339,48.064995 19.755,-30.075995 53.353999,-48.151995 89.337999,-48.064995 z"
        fill="#ea8787"
        id="path20" />

    </g>
    <g
      class="lg-coeur lg-coeur-11"
      transform="matrix(0.04049201,0,0,0.04433018,109.64045,37.816052)"
      id="g24">

      <path
        fill="#ea8787"
        d="m -37.919791,-126.63428 c 58.743,0.286 106.294,47.835995 106.58,106.579995 0,107.624 -195.917999,214.204005 -195.917999,214.204005 0,0 -195.919,-108.147005 -195.919,-214.204005 0,-58.862 47.717,-106.579995 106.58,-106.579995 v 0 c 36.032,-0.281 69.718,17.842 89.339,48.064995 19.755,-30.075995 53.353999,-48.151995 89.337999,-48.064995 z"
        id="path22" />

    </g>
    <g
      class="lg-coeur lg-coeur-12"
      transform="matrix(0.03143458,0,0,0.03133799,107.44895,18.524108)"
      id="g26">

      <path
        d="m -37.919791,-126.63428 c 58.743,0.286 106.294,47.835995 106.58,106.579995 0,107.624 -195.917999,214.204005 -195.917999,214.204005 0,0 -195.919,-108.147005 -195.919,-214.204005 0,-58.862 47.717,-106.579995 106.58,-106.579995 v 0 c 36.032,-0.281 69.718,17.842 89.339,48.064995 19.755,-30.075995 53.353999,-48.151995 89.337999,-48.064995 z"
        fill="#ea8787"
        id="path24" />

    </g>
    <g
      class="lg-coeur lg-coeur-13"
      transform="matrix(0.02095639,0,0,0.020892,116.2233,25.103735)"
      id="g28">

      <path
        fill="#ea8787"
        d="m -37.919791,-126.63428 c 58.743,0.286 106.294,47.835995 106.58,106.579995 0,107.624 -195.917999,214.204005 -195.917999,214.204005 0,0 -195.919,-108.147005 -195.919,-214.204005 0,-58.862 47.717,-106.579995 106.58,-106.579995 v 0 c 36.032,-0.281 69.718,17.842 89.339,48.064995 19.755,-30.075995 53.353999,-48.151995 89.337999,-48.064995 z"
        id="path26" />

    </g>
    <g
      class="lg-coeur lg-cheminee"
      transform="matrix(0.20587257,0,0,0.19671105,-12.405497,135.54668)"
      id="g32">

      <g
        transform="translate(74.131336,-577.60666)"
        id="g30">
        <g
          id="g29">
          <path
            id="path28"
            d="M 335.1916,498.67623 H 460.01453 C 435.35846,413.30471 422.83334,324.80441 422.83334,235.37349 v -16.9021 h -137.0321 c 1.69696,93.03511 17.40402,184.57419 46.76521,272.35173 z"
            style="stroke-width:1.09046;fill:#b3b3b3" />
          <path
            id="path32"
            d="m 53.469156,184.6672 v 16.90209 c 0,101.49046 -16.037456,201.42499 -47.6261424,297.10694 H 301.60509 C 270.01746,402.99321 253.9816,303.05973 253.9816,201.56929 V 184.6672 Z"
            style="stroke-width:1.09046;fill:#b3b3b3" />
        </g>

      </g>
    </g>
  </g>
</svg>
